<svg xmlns="http://www.w3.org/2000/svg" viewBox="0 0 20 20" aria-hidden="true">
  <path fill="currentColor" d="M10 0C4.477 0 0 4.59 0 10.253c0 4.529 2.862 8.371 6.833 9.728.507.101.687-.219.687-.492 0-.338-.012-1.442-.012-2.814 0-.956.32-1.58.679-1.898-2.227-.254-4.567-1.121-4.567-5.059 0-1.12.388-2.034 1.03-2.752-.104-.259-.447-1.302.098-2.714 0 0 .838-.275 2.747 1.051A6.49 6.49 0 0 1 10 4.958c.85.004 1.706.118 2.505.345 1.909-1.326 2.747-1.051 2.747-1.051.545 1.412.202 2.455.098 2.714.642.718 1.03 1.632 1.03 2.752 0 3.938-2.34 4.805-4.567 5.059.359.318.679.942.679 1.898 0 1.372-.012 2.476-.012 2.814 0 .273.18.593.687.492C17.138 18.624 20 14.782 20 10.253 20 4.59 15.523 0 10 0Z" />
</svg>
